<?xml version="1.0" encoding="utf-8"?>
<!-- Generator: Adobe Illustrator 28.0.0, SVG Export Plug-In . SVG Version: 6.00 Build 0)  -->
<svg version="1.1" id="Layer_1" xmlns="http://www.w3.org/2000/svg" xmlns:xlink="http://www.w3.org/1999/xlink" x="0px" y="0px"
	 viewBox="0 0 595.28 841.89" style="enable-background:new 0 0 595.28 841.89;" xml:space="preserve">
<style type="text/css">
	.st0{fill:url(#SVGID_1_);}
</style>
<linearGradient id="SVGID_1_" gradientUnits="userSpaceOnUse" x1="303.1321" y1="201.2847" x2="302.8003" y2="751.6868">
	<stop  offset="0" style="stop-color:#FFF33B"/>
	<stop  offset="0.0401" style="stop-color:#FEE72E"/>
	<stop  offset="0.1171" style="stop-color:#FED51B"/>
	<stop  offset="0.1964" style="stop-color:#FDCA10"/>
	<stop  offset="0.2809" style="stop-color:#FDC70C"/>
	<stop  offset="0.6685" style="stop-color:#F3903F"/>
	<stop  offset="0.8876" style="stop-color:#ED683C"/>
	<stop  offset="1" style="stop-color:#E93E3A"/>
</linearGradient>
<path class="st0" d="M454.84,343.61c-48.95,3.26-68.53,27.41-110.29,31.98c-41.77,4.57-75.7-9.79-130.52,0.65
	c0,0,10.44-36.55,168.38-42.42c71.8-2.67,124.17-21.39,159.95-41.02c-22.84-42.76-56.79-78.68-98.01-103.9
	c-26.79,13.92-57.59,23.34-88.04,18.31c-82.88-13.71-109.64,3.92-109.64,3.92s43.85-42.61,145.53-37.2
	c7.28,0.39,14.69,0.02,22.11-0.91c-33.96-15.3-71.63-23.82-111.3-23.82c-96.31,0-180.89,50.21-229.01,125.88
	c39.7,18.18,78.79,25.77,100.23,16.32c22.19-9.79,45.03-21.54,103.77-8.48c0,0-28.72,1.96-47.64,18.27
	c-18.93,16.32-64.61,12.4-93.32,9.79c-28.72-2.61-88.1,23.49-94.63,34.59c-0.05,0.09-0.14,0.18-0.21,0.28
	c-6.76,23.69-10.38,48.7-10.38,74.56c0,149.78,121.42,271.2,271.2,271.2s271.2-121.42,271.2-271.2c0-22.49-2.76-44.33-7.91-65.22
	C537.26,354.03,493.07,341.06,454.84,343.61z"/>
</svg>
