<?xml version="1.0" encoding="utf-8"?>
<!-- Generator: Adobe Illustrator 28.0.0, SVG Export Plug-In . SVG Version: 6.00 Build 0)  -->
<svg version="1.1" id="Layer_1" xmlns="http://www.w3.org/2000/svg" xmlns:xlink="http://www.w3.org/1999/xlink" x="0px" y="0px"
	 viewBox="0 0 595.3 841.9" style="enable-background:new 0 0 595.3 841.9;" xml:space="preserve">
<style type="text/css">
	.st0{fill:url(#SVGID_1_);}
</style>
<linearGradient id="SVGID_1_" gradientUnits="userSpaceOnUse" x1="307.6696" y1="871.4308" x2="295.8284" y2="-277.17">
	<stop  offset="0" style="stop-color:#FFF33B"/>
	<stop  offset="4.010000e-02" style="stop-color:#FEE72E"/>
	<stop  offset="0.1171" style="stop-color:#FED51B"/>
	<stop  offset="0.1964" style="stop-color:#FDCA10"/>
	<stop  offset="0.2809" style="stop-color:#FDC70C"/>
	<stop  offset="0.6685" style="stop-color:#F3903F"/>
	<stop  offset="0.8876" style="stop-color:#ED683C"/>
	<stop  offset="1" style="stop-color:#E93E3A"/>
</linearGradient>
<path class="st0" d="M454.8,343.6c-49,3.3-68.5,27.4-110.3,32c-41.8,4.6-75.7-9.8-130.5,0.6c0,0,10.4-36.5,168.4-42.4
	c71.8-2.7,124.2-21.4,160-41c-22.8-42.8-56.8-78.7-98-103.9c-26.8,13.9-57.6,23.3-88,18.3c-82.9-13.7-109.6,3.9-109.6,3.9
	s43.8-42.6,145.5-37.2c7.3,0.4,14.7,0,22.1-0.9c-34-15.3-71.6-23.8-111.3-23.8c-96.3,0-180.9,50.2-229,125.9
	c39.7,18.2,78.8,25.8,100.2,16.3c22.2-9.8,45-21.5,103.8-8.5c0,0-28.7,2-47.6,18.3c-18.9,16.3-64.6,12.4-93.3,9.8
	c-28.7-2.6-88.1,23.5-94.6,34.6c0,0.1-0.1,0.2-0.2,0.3c-6.8,23.7-10.4,48.7-10.4,74.6c0,149.8,121.4,271.2,271.2,271.2
	s271.2-121.4,271.2-271.2c0-22.5-2.8-44.3-7.9-65.2C537.3,354,493.1,341.1,454.8,343.6z"/>
</svg>
