<?xml version="1.0" encoding="utf-8"?>
<svg version="1.1" id="Layer_1" xmlns="http://www.w3.org/2000/svg" xmlns:xlink="http://www.w3.org/1999/xlink" x="0px" y="0px"
	 viewBox="0 0 500 500" style="enable-background:new 0 0 500 500;" xml:space="preserve">
<linearGradient id="SVGID_1_" gradientUnits="userSpaceOnUse" x1="250" y1="0" x2="250" y2="500">
	<stop  offset="0" style="stop-color:#FFF33B"/>
	<stop  offset="0.0701" style="stop-color:#FEE72E"/>
	<stop  offset="0.1171" style="stop-color:#FED51B"/>
	<stop  offset="0.1964" style="stop-color:#FDCA10"/>
	<stop  offset="0.2809" style="stop-color:#FDC70C"/>
	<stop  offset="0.6685" style="stop-color:#F3903F"/>
	<stop  offset="0.8876" style="stop-color:#ED683C"/>
	<stop  offset="1" style="stop-color:#E93E3A"/>
</linearGradient>
<path fill="url(#SVGID_1_)" d="M250,50c110.5,0,200,89.5,200,200s-89.5,200-200,200S50,360.5,50,250S139.5,50,250,50z"/>
<g>
	<path fill="#FFFFFF" d="M150,150c0,0,30.2-29.4,100.3-25.6c42.3,2.2,91.3-32,91.3-32s-58.9,64.4-116.1,54.9C168.2,145.9,150,158,150,158z"/>
	<path fill="#FFFFFF" d="M127.5,263.9c0,0,7.2-25.2,116.1-29.2c108.9-4.1,153-61.6,153-61.6s92.2-37.4,46.8,12.2s-42.3,55.8-59,62.5s-57.1-8.5-90.9-6.3s-47.2,18.9-76,22.1C188.7,266.5,165.3,256.6,127.5,263.9z"/>
	<path fill="#FFFFFF" d="M-22.8,181.5c0,0,22.5-2.2,50.9,11.2c28.4,13.5,56.7,19.4,72,12.6s31.1-14.8,71.6-5.8c0,0-19.8,1.4-32.9,12.6c-13.1,11.2-44.6,8.5-64.4,6.7c-19.8-1.8-60.8,16.2-65.3,23.8c-4.5,7.7-86.8,17.1-94.9,1.8C-93.9,229.2-92.1,190.5-22.8,181.5z"/>
</g>
</svg>
