<svg version="1.1" xmlns="http://www.w3.org/2000/svg" viewBox="0 0 841.89 1190.55">
  <path fill="#26AAD3" d="M102.64,631.69C61.38,642.87,15.6,619.9,15.6,619.9s37.25,10.1,68,4.03c50.96-10.06,74.28,0.03,74.28,0.03S143.89,620.5,102.64,631.69z M237.86,630.55c41.5,19.49,92.98-8.4,92.98-8.4s-40.57,10.68-71.84-0.67c-51.84-18.82-77.82-6.86-77.82-6.86S196.36,611.06,237.86,630.55z M197.31,666.85c53.64,25.12,118.49,3.32,118.49,3.32s-51.48,5.68-91.79-9.85c-66.82-25.75-99.62-16.9-99.62-16.9S143.67,641.73,197.31,666.85z M617.62,626.75c-52.25,14.17-110.24-14.92-110.24-14.92s47.18,12.8,86.12,5.11c64.54-12.74,94.08,0.04,94.08,0.04S669.87,612.58,617.62,626.75z M587.18,591.07C523.94,605.84,454.94,572,454.94,572s56.43,15.35,103.48,7.56c77.98-12.91,113.19,2.04,113.19,2.04S650.42,576.3,587.18,591.07z M732.03,612.45c36.19,15.99,79.67-1.33,79.67-1.33s-34.57,5.59-61.75-4.08c-45.05-16.03-67.05-8.8-67.05-8.8S695.84,596.46,732.03,612.45z M277.83,594.55c-52.62,11.52-109.73-20.47-109.73-20.47s46.78,15.16,85.91,9.44c64.86-9.48,94.01,4.78,94.01,4.78S330.45,583.03,277.83,594.55z M533.46,670.05c58.29,12.28,121.32-24.23,121.32-24.23s-51.69,17.54-95.02,11.6c-71.82-9.85-104.01,6.47-104.01,6.47S475.17,657.77,533.46,670.05z M434.25,608.46c-41.25,11.19-87.04-11.78-87.04-11.78s37.25,10.1,68,4.03c50.96-10.06,74.28,0.03,74.28,0.03S475.5,597.27,434.25,608.46z M390.94,646.32c44.43,14.35,95.25-17.35,95.25-17.35s-40.98,14.24-74.19,6.59c-55.03-12.67-80.86,1.31-80.86,1.31S346.52,631.97,390.94,646.32z"/>
</svg>